{"title":"Hitch (2005) 720p Blu-Ray x264 [Dual-Audio][English 5.1 + Hindi]","uid":10718178,"size":1136340500,"categoryP":"video","categoryS":"hd___movies","magnet":"?xt=urn:btih:358ed25b2d176e9d049f3b9eb752947727c3bc06&amp;dn=Hitch+%282005%29+720p+Blu-Ray+x264+%5BDual-Audio%5D%5BEnglish+5.1+%2B+Hindi%5D&amp;tr=udp%3A%2F%2Ftracker.openbittorrent.com%3A80&amp;tr=udp%3A%2F%2Fopen.demonii.com%3A1337&amp;tr=udp%3A%2F%2Ftracker.coppersurfer.tk%3A6969&amp;tr=udp%3A%2F%2Fexodus.desync.com%3A6969","seeders":5,"leechers":0,"uploader":"inovai","files":3,"time":1407439512,"description":"Hitch (2005) 720p Blu-Ray x264 [Dual-Audio][English 5.1 + Hindi] - Mafiaking - TeamTNT\n\nCover: http://forum.primetimeshow.in/viewtopic.php?f=7&amp;t=564\n\n\nGENRE: Comedy | Romance\n\nScreenshots:\n &lt;a href=&quot;\nhttp://img.primetimeshow.in/share.php?id=F45F_53E3B3FE&quot; rel=&quot;nofollow&quot; target=&quot;_NEW&quot;&gt;\nhttp://img.primetimeshow.in/share.php?id=F45F_53E3B3FE&lt;/a&gt;\n &lt;a href=&quot;\nhttp://img.primetimeshow.in/share.php?id=8C63_53E3B3FE&quot; rel=&quot;nofollow&quot; target=&quot;_NEW&quot;&gt;\nhttp://img.primetimeshow.in/share.php?id=8C63_53E3B3FE&lt;/a&gt;\n &lt;a href=&quot;\nhttp://img.primetimeshow.in/share.php?id=6B34_53E3B3FE&quot; rel=&quot;nofollow&quot; target=&quot;_NEW&quot;&gt;\nhttp://img.primetimeshow.in/share.php?id=6B34_53E3B3FE&lt;/a&gt;\n &lt;a href=&quot;\nhttp://img.primetimeshow.in/share.php?id=BDB3_53E3B3FE&quot; rel=&quot;nofollow&quot; target=&quot;_NEW&quot;&gt;\nhttp://img.primetimeshow.in/share.php?id=BDB3_53E3B3FE&lt;/a&gt;\n &lt;a href=&quot;\nhttp://img.primetimeshow.in/share.php?id=71CB_53E3B3FE&quot; rel=&quot;nofollow&quot; target=&quot;_NEW&quot;&gt;\nhttp://img.primetimeshow.in/share.php?id=71CB_53E3B3FE&lt;/a&gt;\n\nGeneral Info:\n\nComplete name : Hitch (2005) 720p Blu-Ray x264 [Dual-Audio][English 5.1 + Hindi] - Mafiaking - TeamTNT.mkv\nFormat : Matroska\nFormat version : Version 4 / Version 2\nFile size : 1.05 GiB\nDuration : 1h 58mn\nOverall bit rate : 1 272 Kbps\nMovie name : Hitch (2005) 720p Blu-Ray x264 [Dual-Audio][English 5.1 + Hindi] - Mafiaking - TeamTNT\nEncoded date : UTC 2014-08-06 18:54:15\nWriting application : mkvmerge v7.0.0 ('Where We Going') 32bit built on Jun 9 2014 15:08:34\nWriting library : libebml v1.3.0 + libmatroska v1.4.1\n\n\nVideo\nID : 1\nFormat : AVC\nFormat/Info : Advanced Video Codec\nFormat profile : &lt;a class=&quot;__cf_email__&quot; href=&quot;/cdn-cgi/l/email-protection&quot; data-cfemail=&quot;dd95b4bab59d91eef3ec&quot;&gt;[email&amp;#160;protected]&lt;/a&gt;&lt;script cf-hash='f9e31' type=&quot;text/javascript&quot;&gt;\n/* &lt;![CDATA[ */!function(){try{var t=&quot;currentScript&quot;in document?document.currentScript:function(){for(var t=document.getElementsByTagName(&quot;script&quot;),e=t.length;e--;)if(t[e].getAttribute(&quot;cf-hash&quot;))return t[e]}();if(t&amp;&amp;t.previousSibling){var e,r,n,i,c=t.previousSibling,a=c.getAttribute(&quot;data-cfemail&quot;);if(a){for(e=&quot;&quot;,r=parseInt(a.substr(0,2),16),n=2;a.length-n;n+=2)i=parseInt(a.substr(n,2),16)^r,e+=String.fromCharCode(i);e=document.createTextNode(e),c.parentNode.replaceChild(e,c)}}}catch(u){}}();/* ]]&gt; */&lt;/script&gt;\nFormat settings, CABAC : Yes\nFormat settings, ReFrames : 4 frames\nCodec ID : V_MPEG4/ISO/AVC\nDuration : 1h 58mn\nBit rate : 950 Kbps\nWidth : 1 280 pixels\nHeight : 534 pixels\nDisplay aspect ratio : 2.40:1\nFrame rate mode : Constant\nFrame rate : 23.976 fps\nColor space : YUV\nChroma subsampling : 4:2:0\nBit depth : 8 bits\nScan type : Progressive\nBits/(Pixel*Frame) : 0.058\nStream size : 784 MiB (73%)\nTitle : Mafiaking\nLanguage : English\nDefault : Yes\nForced : No\n\n\nAudio #1\nID : 2\nFormat : AC-3\nFormat/Info : Audio Coding 3\nMode extension : CM (complete main)\nFormat settings, Endianness : Big\nCodec ID : A_AC3\nDuration : 1h 58mn\nBit rate mode : Constant\nBit rate : 128 Kbps\nChannel(s) : 2 channels\nChannel positions : Front: L R\nSampling rate : 48.0 KHz\nBit depth : 16 bits\nCompression mode : Lossy\nStream size : 108 MiB (10%)\nTitle : Mafiaking\nLanguage : Hindi\nDefault : Yes\nForced : No\n\n\nAudio #2\nID : 3\nFormat : AC-3\nFormat/Info : Audio Coding 3\nMode extension : CM (complete main)\nFormat settings, Endianness : Big\nCodec ID : A_AC3\nDuration : 1h 58mn\nBit rate mode : Constant\nBit rate : 192 Kbps\nChannel(s) : 6 channels\nChannel positions : Front: L C R, Side: L R, LFE\nSampling rate : 48.0 KHz\nBit depth : 16 bits\nCompression mode : Lossy\nStream size : 162 MiB (15%)\nTitle : Mafiaking\nLanguage : English\nDefault : No\nForced : No\n\nTHanks to Mafiaking and TeamTNT\n\n\n\nSAMPLE WITH IN TORRENT","torrent":{"xt":"urn:btih:358ed25b2d176e9d049f3b9eb752947727c3bc06","amp;dn":"Hitch+%282005%29+720p+Blu-Ray+x264+%5BDual-Audio%5D%5BEnglish+5.1+%2B+Hindi%5D","amp;tr":["udp%3A%2F%2Ftracker.openbittorrent.com%3A80","udp%3A%2F%2Fopen.demonii.com%3A1337","udp%3A%2F%2Ftracker.coppersurfer.tk%3A6969","udp%3A%2F%2Fexodus.desync.com%3A6969"],"infoHash":"358ed25b2d176e9d049f3b9eb752947727c3bc06","infoHashBuffer":{"type":"Buffer","data":[53,142,210,91,45,23,110,157,4,159,59,158,183,82,148,119,39,195,188,6]},"announce":[],"urlList":[]}}